P3
# TESTING PNM FORMAT FOR SAVING
# BLABLABLA
7 5
256
0 0 255 0 0 255 255 255 255 255 255 255 255 255 255 255 255 255 255 255 255 255 255 255 0 0 255 0 0 255 255 255 255 255 0 0 0 0 255 255 255 255 255 255 255 255 255 255 0 0 255 0 0 255 0 0 255 0 0 255 255 255 255 255 255 255 255 255 255 255 255 255 0 0 255 0 0 255 255 255 255 255 255 255 255 255 255 255 255 255 255 255 255 255 255 255 255 255 255 255 255 255 255 0 0 