P3
# TESTING PNM FORMAT FOR SAVING
# Authors: Rodrigo Guimaraes and Flavio Matheus
11 7
256
255 255 255 255 255 255 255 0 0 255 0 0 255 0 0 255 0 0 255 0 0 255 255 255 255 255 255 255 255 255 255 255 255 255 255 255 255 0 0 255 0 0 255 0 0 255 0 0 255 0 0 255 0 0 255 0 0 255 0 0 255 0 0 255 255 255 255 255 255 128 0 0 128 0 0 128 0 0 255 255 0 255 255 0 128 0 0 255 255 0 255 255 255 255 255 255 255 255 255 128 0 0 255 255 0 128 0 0 255 255 0 255 255 0 255 255 0 128 0 0 255 255 0 255 255 0 255 255 0 255 255 255 128 0 0 255 255 0 128 0 0 128 0 0 255 255 0 255 255 0 255 255 0 128 0 0 255 255 0 255 255 0 255 255 0 128 0 0 128 0 0 255 255 0 255 255 0 255 255 0 255 255 0 128 0 0 128 0 0 128 0 0 128 0 0 255 255 255 255 255 255 255 255 255 255 255 0 255 255 0 255 255 0 255 255 0 255 255 0 255 255 0 255 255 0 255 255 255 255 255 255 